<svg height="512pt" viewBox="0 0 512 512" width="512pt" xmlns="http://www.w3.org/2000/svg"><path d="m186.921875 511.84375h-180c-3.820313 0-6.921875-3.097656-6.921875-6.921875v-13.09375c0-11.050781 8.960938-20.011719 20.011719-20.011719h151.773437c12.183594 0 22.058594 9.878906 22.058594 22.0625v11.042969c.003906 3.824219-3.097656 6.921875-6.921875 6.921875zm0 0" fill="#d4d6d6"/><path d="m173.230469 471.816406h-36.054688c11.382813 0 20.613281 9.230469 20.613281 20.617188v19.410156h29.132813c3.824219 0 6.921875-3.097656 6.921875-6.921875v-12.492187c.003906-11.382813-9.226562-20.613282-20.613281-20.613282zm0 0" fill="#bbbdbd"/><path d="m163.539062 471.816406h-133.234374v-195.148437c0-17.191407 13.933593-31.125 31.125-31.125h65.855468c20.023438 0 36.253906 16.230469 36.253906 36.253906zm0 0" fill="#d4d6d6"/><path d="m131.476562 245.542969h-33.179687c17.707031 0 32.0625 14.355469 32.0625 32.0625v194.210937h33.179687v-194.207031c0-17.710937-14.351562-32.066406-32.0625-32.066406zm0 0" fill="#bbbdbd"/><path d="m74.773438 71.957031h44.296874v173.585938h-44.296874zm0 0" fill="#828282"/><path d="m96.921875 71.957031h22.148437v173.585938h-22.148437zm0 0" fill="#5a5a5a"/><path d="m125.351562 71.082031c-2.042968-2.039062-2.042968-5.351562 0-7.394531l33.992188-33.992188c6.75-6.75 6.828125-17.644531.230469-24.492187-6.796875-7.058594-18.355469-6.84375-25.285157.085937l-33.667968 33.667969c-2.042969 2.042969-5.355469 2.042969-7.398438 0l-33.667968-33.667969c-6.929688-6.929687-18.484376-7.144531-25.285157-.085937-6.59375 6.847656-6.515625 17.742187.234375 24.492187l33.988282 33.992188c2.042968 2.042969 2.042968 5.351562 0 7.394531l-33.988282 33.992188c-6.828125 6.832031-6.828125 17.902343 0 24.730469 3.410156 3.414062 7.886719 5.121093 12.363282 5.121093 4.476562 0 8.949218-1.707031 12.363281-5.121093l33.992187-33.992188c2.042969-2.042969 5.355469-2.042969 7.398438 0l33.992187 33.992188c3.414063 3.414062 7.890625 5.121093 12.363281 5.121093 4.476563 0 8.953126-1.707031 12.367188-5.121093 6.828125-6.828126 6.828125-17.902344 0-24.730469zm0 0" fill="#ffe565"/><path d="m492.585938 358.679688h-329.046876v-65.789063h329.046876c10.722656 0 19.414062 8.691406 19.414062 19.414063v26.960937c0 10.722656-8.691406 19.414063-19.414062 19.414063zm0 0" fill="#828282"/><path d="m494.722656 292.890625h-26.785156c9.542969 0 17.277344 7.734375 17.277344 17.273437v31.238282c0 9.542968-7.734375 17.277344-17.277344 17.277344h26.785156c9.542969 0 17.277344-7.734376 17.277344-17.277344v-31.238282c0-9.539062-7.734375-17.273437-17.277344-17.273437zm0 0" fill="#5a5a5a"/><path d="m279.675781 292.890625h-55.628906v-25.519531c0-14.914063 12.085937-27 27-27h1.628906c14.910157 0 27 12.085937 27 27zm0 0" fill="#e04955"/><path d="m451.496094 292.890625h-55.628906v-25.519531c0-14.914063 12.085937-27 27-27h1.628906c14.910156 0 27 12.085937 27 27zm0 0" fill="#e04955"/><path d="m252.675781 240.371094h-1.628906c-2.96875 0-5.824219.480468-8.492187 1.363281 10.75 3.558594 18.507812 13.691406 18.507812 25.636719v25.519531h18.613281v-25.519531c0-14.914063-12.089843-27-27-27zm0 0" fill="#da2f3c"/><path d="m424.496094 240.371094h-1.628906c-2.96875 0-5.824219.480468-8.492188 1.363281 10.75 3.558594 18.507812 13.691406 18.507812 25.636719v25.519531h18.613282v-25.519531c0-14.914063-12.089844-27-27-27zm0 0" fill="#da2f3c"/><path d="m279.675781 358.679688h-78.960937l39.480468-65.789063h78.960938zm0 0" fill="#ffe565"/><path d="m291.34375 292.890625-39.484375 65.789063h27.816406l39.480469-65.789063zm0 0" fill="#ffd508"/><path d="m440.546875 358.679688h-78.960937l39.480468-65.789063h78.960938zm0 0" fill="#ffe565"/><path d="m452.769531 292.890625-39.480469 65.789063h27.257813l39.480469-65.789063zm0 0" fill="#ffd508"/></svg>