<svg height="464pt" viewBox="0 0 464 464" width="464pt" xmlns="http://www.w3.org/2000/svg"><path d="m0 0h464v64h-464zm0 0" fill="#a87b69"/><path d="m0 400h464v64h-464zm0 0" fill="#a87b69"/><path d="m0 64h464v336h-464zm0 0" fill="#ffd782"/><path d="m424 424h16v16h-16zm0 0" fill="#e5d0c7"/><path d="m304 424h104v16h-104zm0 0" fill="#e5d0c7"/><path d="m192 424h16v16h-16zm0 0" fill="#e5d0c7"/><path d="m24 424h16v16h-16zm0 0" fill="#e5d0c7"/><path d="m0 24h128v16h-128zm0 0" fill="#e5d0c7"/><path d="m144 24h16v16h-16zm0 0" fill="#e5d0c7"/><path d="m208 24h96v16h-96zm0 0" fill="#e5d0c7"/><path d="m328 24h16v16h-16zm0 0" fill="#e5d0c7"/><g fill="#d69225"><path d="m48 64h16v160h-16zm0 0"/><path d="m112 64h16v88h-16zm0 0"/><path d="m168 64h16v196h-16zm0 0"/><path d="m96 216h16v107.207031h-16zm0 0"/><path d="m304 190.015625h16v209.984375h-16zm0 0"/><path d="m240 64h16v135.785156h-16zm0 0"/><path d="m248 328h16v72h-16zm0 0"/><path d="m360 312h16v88h-16zm0 0"/><path d="m400 104h16v296h-16zm0 0"/><path d="m344 240h16v32h-16zm0 0"/><path d="m40 272h16v32h-16zm0 0"/></g><path d="m448 32c0 8.835938-7.164062 16-16 16s-16-7.164062-16-16 7.164062-16 16-16 16 7.164062 16 16zm0 0" fill="#f4f4e6"/><path d="m104 432c0 8.835938-7.164062 16-16 16s-16-7.164062-16-16 7.164062-16 16-16 16 7.164062 16 16zm0 0" fill="#f4f4e6"/><path d="m360 64-360 336h120l344-336zm0 0" fill="#ceac9a"/><path d="m136 336c0 8.835938-7.164062 16-16 16s-16-7.164062-16-16 7.164062-16 16-16 16 7.164062 16 16zm0 0" fill="#f4f4e6"/><path d="m320 144c0 8.835938-7.164062 16-16 16s-16-7.164062-16-16 7.164062-16 16-16 16 7.164062 16 16zm0 0" fill="#f4f4e6"/><path d="m256 256c0 8.835938-7.164062 16-16 16s-16-7.164062-16-16 7.164062-16 16-16 16 7.164062 16 16zm0 0" fill="#f4f4e6"/></svg>