<svg height="512" viewBox="0 0 512 512" width="512" xmlns="http://www.w3.org/2000/svg"><g id="flat"><path d="m344 488h-48v-96h-240v-96h288z" fill="#c5711e"/><g fill="#da922a"><path d="m88 128h32v168h-32z"/><path d="m184 128h32v168h-32z"/><path d="m280 128h32v168h-32z"/></g><path d="m88 160h32v32h-32z" fill="#b94137"/><path d="m184 160h32v32h-32z" fill="#b94137"/><path d="m280 160h32v32h-32z" fill="#b94137"/><path d="m56 384h248v104h-248z" fill="#b0651b"/><path d="m24 392h272v96h-272z" fill="#e08122"/><path d="m56 440h48v48h-48z" fill="#a83b32"/><path d="m56 448h40v40h-40z" fill="#b94137"/><path d="m136 440h48v48h-48z" fill="#a83b32"/><path d="m136 448h40v40h-40z" fill="#b94137"/><path d="m216 440h48v48h-48z" fill="#a83b32"/><path d="m216 448h40v40h-40z" fill="#b94137"/><path d="m136 344v16h-32v-16a16 16 0 1 1 32 0z" fill="#70400e"/><path d="m216 344v16h-32v-16a16 16 0 1 1 32 0z" fill="#70400e"/><path d="m296 344v16h-32v-16a16 16 0 1 1 32 0z" fill="#70400e"/><path d="m128 344v16h-24v-16a16.012 16.012 0 0 1 12-15.5 15.987 15.987 0 0 1 12 15.5z" fill="#834b10"/><path d="m208 344v16h-24v-16a16.012 16.012 0 0 1 12-15.5 15.987 15.987 0 0 1 12 15.5z" fill="#834b10"/><path d="m288 344v16h-24v-16a16.012 16.012 0 0 1 12-15.5 15.987 15.987 0 0 1 12 15.5z" fill="#834b10"/><path d="m152 296h-96v-64z" fill="#70400e"/><path d="m248 296h-96v-64z" fill="#70400e"/><path d="m136 296h-80v-53.33z" fill="#834b10"/><path d="m232 296h-80v-53.33z" fill="#834b10"/><path d="m112 104h-16a16.019 16.019 0 0 0 -16-16 32.036 32.036 0 0 1 -32-32h16a16.019 16.019 0 0 0 16 16 32.036 32.036 0 0 1 32 32z" fill="#fbd699"/><path d="m208 104h-16a16.019 16.019 0 0 0 -16-16 32.036 32.036 0 0 1 -32-32h16a16.019 16.019 0 0 0 16 16 32.036 32.036 0 0 1 32 32z" fill="#fbd699"/><path d="m304 104h-16a16.019 16.019 0 0 0 -16-16 32.036 32.036 0 0 1 -32-32h16a16.019 16.019 0 0 0 16 16 32.036 32.036 0 0 1 32 32z" fill="#fbd699"/><path d="m72 408h16v16h-16z" fill="#834b10"/><path d="m152 408h16v16h-16z" fill="#834b10"/><path d="m232 408h16v16h-16z" fill="#834b10"/><path d="m56 296h288v8h-288z" fill="#b0651b"/><path d="m88 128h32v16h-32z" fill="#fbb540"/><path d="m184 128h32v16h-32z" fill="#fbb540"/><path d="m280 128h32v16h-32z" fill="#fbb540"/><path d="m344 296h-96v-64z" fill="#70400e"/><path d="m328 296h-80v-53.33z" fill="#834b10"/><path d="m488 488h-192l22.61-71.59q1.32-4.2 2.58-8.41a547.143 547.143 0 0 0 17.46-80 546.678 546.678 0 0 0 5.35-76.33v-35.67h96v35.67a547.048 547.048 0 0 0 22.81 156.33q1.26 4.215 2.58 8.41z" fill="#fbb540"/><path d="m462.81 408h-141.62a547.143 547.143 0 0 0 17.46-80h106.7a547.143 547.143 0 0 0 17.46 80z" fill="#da922a"/><path d="m336 184h112v32h-112z" fill="#fbb540"/><path d="m344 216h96v16h-96z" fill="#da922a"/></g></svg>