<?xml version="1.0" encoding="iso-8859-1"?>
<!-- Generator: Adobe Illustrator 19.0.0, SVG Export Plug-In . SVG Version: 6.00 Build 0)  -->
<svg version="1.1" id="Capa_1" xmlns="http://www.w3.org/2000/svg" xmlns:xlink="http://www.w3.org/1999/xlink" x="0px" y="0px"
	 viewBox="0 0 512 512" style="enable-background:new 0 0 512 512;" xml:space="preserve">
<path style="fill:#B9B9B9;" d="M483.019,367.094c-15.978,0-28.981-13.003-28.981-28.981V231.849c0-5.333,4.328-9.66,9.66-9.66
	s9.66,4.328,9.66,9.66v106.264c0,5.323,4.338,9.66,9.66,9.66c5.323,0,9.66-4.337,9.66-9.66c0-5.333,4.328-9.66,9.66-9.66
	s9.66,4.328,9.66,9.66C512,354.091,498.997,367.094,483.019,367.094z"/>
<g>
	<polygon style="fill:#FBB540;" points="483.019,212.528 454.038,241.509 367.094,115.925 415.396,115.925 	"/>
	<polygon style="fill:#FBB540;" points="318.792,328.453 318.792,338.113 212.528,338.113 212.528,328.453 338.113,115.925 
		376.755,115.925 	"/>
</g>
<circle style="fill:#EA9D2D;" cx="463.698" cy="222.189" r="28.981"/>
<path style="fill:#A8A8A8;" d="M473.358,318.792h-19.321c-5.333,0-9.66-4.328-9.66-9.66s4.328-9.66,9.66-9.66h19.321
	c5.333,0,9.66,4.328,9.66,9.66S478.691,318.792,473.358,318.792z"/>
<rect x="268.206" y="270.493" transform="matrix(-0.4472 0.8944 -0.8944 -0.4472 669.9869 146.2311)" style="fill:#EA9D2D;" width="43.2" height="19.32"/>
<path style="fill:#F3AF3E;" d="M386.415,328.453H173.887V212.528h-69.033c-10.974,0-21.011,6.202-25.919,16.017l-20.973,51.606
	H38.642C17.302,280.151,0,297.453,0,318.792v67.623h57.962h106.264h9.66h222.189v-48.302
	C396.075,332.781,391.748,328.453,386.415,328.453z"/>
<circle style="fill:#A8A8A8;" cx="106.264" cy="391.245" r="33.811"/>
<path style="fill:#787D82;" d="M106.264,434.717c-23.967,0-43.472-19.504-43.472-43.472c0-23.967,19.504-43.472,43.472-43.472
	s43.472,19.504,43.472,43.472C149.736,415.213,130.232,434.717,106.264,434.717z M106.264,367.094
	c-13.312,0-24.151,10.839-24.151,24.151c0,13.312,10.839,24.151,24.151,24.151s24.151-10.839,24.151-24.151
	S119.576,367.094,106.264,367.094z"/>
<path style="fill:#8ACED8;" d="M57.962,280.151h77.283v-67.623h-30.392c-10.974,0-21.011,6.202-25.919,16.017L57.962,280.151z"/>
<path style="fill:#B3E4E8;" d="M115.925,260.83v-48.302h-11.071c-10.974,0-21.011,6.202-25.919,16.017L65.816,260.83H115.925z"/>
<g>
	<rect x="106.264" y="309.132" style="fill:#EA9D2D;" width="38.642" height="19.321"/>
	<polygon style="fill:#EA9D2D;" points="223.947,309.132 212.528,328.453 318.792,328.453 324.057,309.132 	"/>
	<polygon style="fill:#EA9D2D;" points="363.578,164.226 376.755,115.925 338.113,115.925 309.567,164.226 	"/>
	<polygon style="fill:#EA9D2D;" points="449.208,164.226 415.396,115.925 367.094,115.925 400.539,164.226 	"/>
</g>
<circle style="fill:#FBB540;" cx="376.755" cy="115.925" r="38.642"/>
<circle style="fill:#EA9D2D;" cx="376.755" cy="115.925" r="9.66"/>
<path style="fill:#F3AF3E;" d="M396.075,386.415H173.887v-57.962h212.528c5.333,0,9.66,4.328,9.66,9.66V386.415z"/>
<circle style="fill:#A8A8A8;" cx="323.623" cy="391.245" r="33.811"/>
<path style="fill:#787D82;" d="M323.623,434.717c-23.967,0-43.472-19.504-43.472-43.472c0-23.967,19.504-43.472,43.472-43.472
	s43.472,19.504,43.472,43.472C367.094,415.213,347.59,434.717,323.623,434.717z M323.623,367.094
	c-13.312,0-24.151,10.839-24.151,24.151c0,13.312,10.839,24.151,24.151,24.151s24.151-10.839,24.151-24.151
	S336.935,367.094,323.623,367.094z"/>
<g>
</g>
<g>
</g>
<g>
</g>
<g>
</g>
<g>
</g>
<g>
</g>
<g>
</g>
<g>
</g>
<g>
</g>
<g>
</g>
<g>
</g>
<g>
</g>
<g>
</g>
<g>
</g>
<g>
</g>
</svg>
