<svg id="Capa_1" enable-background="new 0 0 512 512" height="512" viewBox="0 0 512 512" width="512" xmlns="http://www.w3.org/2000/svg"><g><path d="m36.01 32.71v341.866c0 7.387 6.044 13.431 13.431 13.431h413.118c7.387 0 13.431-6.044 13.431-13.431 0-4.21 0-267.57 0-341.866z" fill="#ff656f"/><path d="m86.998 374.576c0-3.822 0-267.423 0-341.866h-50.988v341.866c0 7.387 6.044 13.431 13.431 13.431h50.987c-7.387-.001-13.43-6.045-13.43-13.431z" fill="#ff4756"/><path d="m462.559 0h-413.118c-7.387 0-13.431 6.044-13.431 13.431v20.309h439.98v-20.309c0-7.387-6.044-13.431-13.431-13.431z" fill="#ff4756"/><path d="m100.428 0h-50.987c-7.387 0-13.431 6.044-13.431 13.431v20.309h50.987v-20.309c.001-7.387 6.044-13.431 13.431-13.431z" fill="#fc2d39"/><g><path d="m449.382 235.667c-8.525 0-18.378 3.115-24.38 8.259v40.469c6.898 4.201 12.068 10.953 14.211 18.944 2.601.63 7.374.972 10.169.972 18.956 0 34.322-15.367 34.322-34.322s-15.366-34.322-34.322-34.322z" fill="#dfebfa"/></g><path d="m459.861 269.99c0-10.392 4.625-19.698 11.922-25.992-6.013-5.186-13.837-8.33-22.4-8.33-8.525 0-18.378 3.115-24.38 8.259v40.469c6.898 4.201 12.068 10.953 14.211 18.944 2.601.63 7.374.972 10.169.972 8.563 0 16.388-3.143 22.4-8.33-7.297-6.294-11.922-15.6-11.922-25.992z" fill="#b1dbfc"/><g><path d="m86.998 284.396v-40.469c-6.002-5.145-15.855-8.259-24.38-8.259-18.956 0-34.322 15.367-34.322 34.322s15.367 34.322 34.322 34.322c2.795 0 7.568-.342 10.169-.972 2.143-7.991 7.312-14.743 14.211-18.944z" fill="#dfebfa"/></g><path d="m63.154 269.99c0-12.924 7.147-24.175 17.7-30.029-5.524-2.73-12.209-4.293-18.236-4.293-18.956 0-34.322 15.366-34.322 34.322s15.366 34.322 34.322 34.322c2.795 0 7.568-.342 10.169-.972.654-2.44 1.594-4.763 2.776-6.935-7.58-6.296-12.409-15.791-12.409-26.415z" fill="#b1dbfc"/><path d="m367.369 130.382h-222.738c-32.968 0-59.693 26.927-59.693 60.144v95.032c4.819-2.956 10.478-4.66 16.532-4.66h309.061c6.054 0 11.713 1.704 16.532 4.66v-95.032c0-33.217-26.726-60.144-59.694-60.144z" fill="#ffc20c"/><g><path d="m116.873 190.526c0-33.217 26.726-60.144 59.693-60.144h-31.936c-32.968 0-59.693 26.927-59.693 60.144v95.032c4.819-2.956 10.478-4.66 16.532-4.66h15.403v-90.372z" fill="#ffa90f"/></g><path d="m367.369 157.294h-222.738c-18.216 0-32.984 14.879-32.984 33.233v90.372h288.706v-90.372c0-18.355-14.767-33.233-32.984-33.233z" fill="#60b8fe"/><path d="m174.431 157.294h-29.801c-18.216 0-32.984 14.879-32.984 33.232v90.372h29.801v-90.372c.001-18.354 14.768-33.232 32.984-33.232z" fill="#23a8fe"/><path d="m373.163 280.898c.186-1.901.291-3.825.291-5.776 0-33.042-26.585-59.828-59.38-59.828s-59.38 26.786-59.38 59.828c0 1.95.105 3.875.291 5.776h26.827c-.33-1.876-.511-3.804-.511-5.776 0-18.237 14.673-33.021 32.774-33.021s32.774 14.784 32.774 33.021c0 1.972-.181 3.9-.511 5.776z" fill="#23a8fe"/><g><g><path d="m290.304 252.401c6.949-17.038 21.473-30.123 39.353-35.011-4.968-1.358-10.189-2.096-15.583-2.096-32.795 0-59.38 26.786-59.38 59.829 0 1.95.105 3.875.291 5.776h26.827c-.33-1.876-.512-3.804-.512-5.776 0-8.807 3.428-16.802 9.004-22.722z" fill="#0193fa"/></g></g><path d="m410.531 279.771h-309.061c-17.581 0-31.833 14.252-31.833 31.833v115.707h133.381l-.001.001c2.095-2.802 5.427-4.632 9.174-4.632h86.588c3.746 0 7.078 1.83 9.173 4.631h134.411c0-21.638 0-87.732 0-115.707 0-17.581-14.252-31.833-31.832-31.833z" fill="#ffd301"/><g><g><path d="m144.343 279.771h-42.873c-17.581 0-31.833 14.252-31.833 31.833v115.707h42.874c0-22.323 0-91.273 0-115.707 0-17.581 14.252-31.833 31.832-31.833z" fill="#ffc20c"/></g></g><path d="m448.846 382.75v-9.972c0-7.051-5.769-12.821-12.821-12.821h-61.967c-7.051 0-12.821 5.77-12.821 12.821v9.972c0 7.052 5.769 12.821 12.821 12.821h61.967c7.052 0 12.821-5.769 12.821-12.821z" fill="#23a8fe"/><path d="m391.799 382.75v-9.972c0-7.051 5.77-12.821 12.821-12.821h-30.562c-7.051 0-12.821 5.77-12.821 12.821v9.972c0 7.052 5.769 12.821 12.821 12.821h30.562c-7.051 0-12.821-5.769-12.821-12.821z" fill="#0193fa"/><path d="m448.846 382.75v-9.972c0-7.051-5.769-12.821-12.821-12.821h-8.375c-7.051 0-12.821 5.77-12.821 12.821v9.972c0 7.052 5.769 12.821 12.821 12.821h8.375c7.052 0 12.821-5.769 12.821-12.821z" fill="#ff4756"/><path d="m150.763 382.75v-9.972c0-7.051-5.769-12.821-12.821-12.821h-61.967c-7.051 0-12.821 5.77-12.821 12.821v9.972c0 7.052 5.769 12.821 12.821 12.821h61.967c7.051 0 12.821-5.769 12.821-12.821z" fill="#23a8fe"/><path d="m111.647 382.75v-9.972c0-7.051 5.769-12.821 12.821-12.821h-48.493c-7.052 0-12.821 5.77-12.821 12.821v9.972c0 7.052 5.769 12.821 12.821 12.821h48.493c-7.052 0-12.821-5.769-12.821-12.821z" fill="#0193fa"/><path d="m97.17 382.75v-9.972c0-7.051-5.769-12.821-12.821-12.821h-8.375c-7.051 0-12.821 5.77-12.821 12.821v9.972c0 7.052 5.769 12.821 12.821 12.821h8.375c7.052 0 12.821-5.769 12.821-12.821z" fill="#fc2d39"/><path d="m317.967 389.101h-123.934c-7.052 0-12.821 5.769-12.821 12.821v26.418h21.806l-.001.001c2.095-2.802 5.427-4.632 9.174-4.632h86.588c3.746 0 7.078 1.83 9.173 4.631h22.836v-26.418c0-7.052-5.769-12.821-12.821-12.821z" fill="#665e68"/><g><g><path d="m235.969 401.922c0-7.052 5.769-12.821 12.821-12.821h-54.757c-7.052 0-12.821 5.769-12.821 12.821v26.418h21.806l-.001.001c2.095-2.802 5.427-4.632 9.174-4.632h23.777v-21.787z" fill="#544e55"/></g></g><g><path d="m351.582 456.949v41.002c0 7.727 6.322 14.049 14.049 14.049h62.169c7.727 0 14.049-6.322 14.049-14.049v-41.002z" fill="#665e68"/></g><g><path d="m70.152 456.949v41.002c0 7.727 6.322 14.049 14.049 14.049h62.169c7.727 0 14.049-6.322 14.049-14.049v-41.002z" fill="#665e68"/></g><path d="m393.078 497.951v-41.002h-41.496v41.002c0 7.727 6.322 14.049 14.049 14.049h41.496c-7.727 0-14.049-6.322-14.049-14.049z" fill="#544e55"/><path d="m111.647 497.951v-41.002h-41.495v41.002c0 7.727 6.322 14.049 14.049 14.049h41.496c-7.728 0-14.05-6.322-14.05-14.049z" fill="#544e55"/><path d="m204.334 453.207v-22.155c0-2.558.86-4.919 2.29-6.832h-142.183c-6.304 0-11.463 5.158-11.463 11.463v12.894c0 6.305 5.158 11.463 11.463 11.463h142.183c-1.431-1.913-2.29-4.275-2.29-6.833z" fill="#dfebfa"/><path d="m101.624 448.576v-12.894c0-6.305 5.158-11.463 11.463-11.463h-48.646c-6.304 0-11.463 5.158-11.463 11.463v12.894c0 6.305 5.158 11.463 11.463 11.463h48.647c-6.305 0-11.464-5.158-11.464-11.463z" fill="#b1dbfc"/><path d="m447.559 424.22h-142.183c1.431 1.913 2.29 4.274 2.29 6.832v22.155c0 2.558-.86 4.919-2.29 6.832h142.183c6.304 0 11.463-5.158 11.463-11.463v-12.894c0-6.304-5.158-11.462-11.463-11.462z" fill="#dfebfa"/><path d="m299.294 464.67h-86.588c-6.305 0-11.463-5.158-11.463-11.463v-22.156c0-6.305 5.158-11.463 11.463-11.463h86.588c6.305 0 11.463 5.158 11.463 11.463v22.156c0 6.305-5.159 11.463-11.463 11.463z" fill="#b1dbfc"/><path d="m250.619 453.207v-22.155c0-6.305 5.158-11.463 11.463-11.463h-49.376c-6.305 0-11.463 5.158-11.463 11.463v22.155c0 6.305 5.158 11.463 11.463 11.463h49.376c-6.304 0-11.463-5.158-11.463-11.463z" fill="#8bcaff"/><g><path d="m325.826 315.689h-139.652c-4.267 0-7.726-3.459-7.726-7.726s3.459-7.726 7.726-7.726h139.652c4.267 0 7.726 3.459 7.726 7.726s-3.459 7.726-7.726 7.726z" fill="#fee55a"/></g><g><path d="m325.826 367.684h-139.652c-4.267 0-7.726-3.459-7.726-7.726s3.459-7.726 7.726-7.726h139.652c4.267 0 7.726 3.459 7.726 7.726s-3.459 7.726-7.726 7.726z" fill="#fee55a"/></g><g><path d="m325.826 341.686h-139.652c-4.267 0-7.726-3.459-7.726-7.726s3.459-7.726 7.726-7.726h139.652c4.267 0 7.726 3.459 7.726 7.726s-3.459 7.726-7.726 7.726z" fill="#fee55a"/></g></g></svg>