<?xml version="1.0" encoding="iso-8859-1"?>
<!-- Generator: Adobe Illustrator 19.0.0, SVG Export Plug-In . SVG Version: 6.00 Build 0)  -->
<svg version="1.1" id="Capa_1" xmlns="http://www.w3.org/2000/svg" xmlns:xlink="http://www.w3.org/1999/xlink" x="0px" y="0px"
	 viewBox="0 0 512 512" style="enable-background:new 0 0 512 512;" xml:space="preserve">
<path style="fill:#B02721;" d="M486.4,221.867h-17.067v-51.2h7.68C472.747,80.213,407.04,51.2,315.733,51.2H196.267
	c-91.307,0-157.013,29.013-161.28,119.467h7.68v51.2H25.6v76.8l0,0l0,0c0,0.853,0,0.853,0,1.707v92.16h153.6v-102.4h153.6v102.4
	h153.6v-92.16c0-0.853,0-0.853,0-1.707l0,0V221.867z"/>
<path style="fill:#EBBA16;" d="M469.333,221.867v-51.2h16.213C481.28,80.213,407.04,8.533,315.733,8.533H196.267
	c-91.307,0-165.547,71.68-169.813,162.133h16.213v51.2H25.6v76.8l0,0c0.853-29.013,29.867-49.493,58.027-40.107l95.573,31.573h153.6
	l95.573-31.573c28.16-9.387,57.173,11.093,58.027,40.107l0,0v-76.8H469.333z"/>
<path style="fill:#DD352E;" d="M110.933,93.867C92.16,93.867,76.8,109.227,76.8,128v128.853c2.56,0,4.267,0.853,6.827,1.707
	l95.573,31.573h153.6l95.573-31.573c2.56-0.853,5.12-1.707,6.827-1.707V128c0-18.773-15.36-34.133-34.133-34.133H110.933z"/>
<g>
	<path style="fill:#B02721;" d="M179.2,392.533H25.6v-92.16c0-29.867,29.867-51.2,58.027-41.813l95.573,31.573V392.533z"/>
	<path style="fill:#B02721;" d="M332.8,392.533h153.6v-92.16c0-29.867-29.867-51.2-58.027-41.813L332.8,290.133V392.533z"/>
</g>
<rect x="179.2" y="290.133" style="fill:#E7ECED;" width="153.6" height="102.4"/>
<path style="fill:#C6E2F7;" d="M375.467,238.933H136.533c-14.507,0-25.6-11.093-25.6-25.6V153.6c0-14.507,11.093-25.6,25.6-25.6
	h238.933c14.507,0,25.6,11.093,25.6,25.6v59.733C401.067,227.84,389.973,238.933,375.467,238.933z"/>
<g>
	<path style="fill:#AFB6BB;" d="M298.667,332.8h-85.333c-5.12,0-8.533-3.413-8.533-8.533c0-5.12,3.413-8.533,8.533-8.533h85.333
		c5.12,0,8.533,3.413,8.533,8.533C307.2,329.387,303.787,332.8,298.667,332.8z"/>
	<path style="fill:#AFB6BB;" d="M298.667,366.933h-85.333c-5.12,0-8.533-3.413-8.533-8.533s3.413-8.533,8.533-8.533h85.333
		c5.12,0,8.533,3.413,8.533,8.533S303.787,366.933,298.667,366.933z"/>
	<path style="fill:#AFB6BB;" d="M486.4,392.533H25.6c-9.387,0-17.067,7.68-17.067,17.067v17.067c0,9.387,7.68,17.067,17.067,17.067
		h460.8c9.387,0,17.067-7.68,17.067-17.067V409.6C503.467,400.213,495.787,392.533,486.4,392.533z"/>
</g>
<g>
	<path style="fill:#28384C;" d="M384,443.733v34.133c0,14.507,11.093,25.6,25.6,25.6h34.133c14.507,0,25.6-11.093,25.6-25.6v-34.133
		H384z"/>
	<path style="fill:#28384C;" d="M42.667,443.733v34.133c0,14.507,11.093,25.6,25.6,25.6H102.4c14.507,0,25.6-11.093,25.6-25.6
		v-34.133H42.667z"/>
</g>
<g>
	<path style="fill:#F2ECBF;" d="M136.533,358.4H68.267c-5.12,0-8.533-3.413-8.533-8.533v-34.133c0-5.12,3.413-8.533,8.533-8.533
		h68.267c5.12,0,8.533,3.413,8.533,8.533v34.133C145.067,354.987,141.653,358.4,136.533,358.4z"/>
	<path style="fill:#F2ECBF;" d="M443.733,358.4h-68.267c-5.12,0-8.533-3.413-8.533-8.533v-34.133c0-5.12,3.413-8.533,8.533-8.533
		h68.267c5.12,0,8.533,3.413,8.533,8.533v34.133C452.267,354.987,448.853,358.4,443.733,358.4z"/>
</g>
<g>
	<path style="fill:#28384C;" d="M179.2,247.467c-0.853,0-2.56,0-3.413-0.853c-4.267-1.707-5.973-6.827-3.413-11.093l17.067-34.133
		c1.707-4.267,6.827-5.973,11.093-3.413c4.267,2.56,5.973,6.827,3.413,11.093L186.88,243.2
		C185.173,245.76,182.613,247.467,179.2,247.467z"/>
	<path style="fill:#28384C;" d="M298.667,247.467c-1.707,0-2.56,0-3.413-0.853c-4.267-1.707-5.973-6.827-3.413-11.093l17.067-34.133
		c1.707-4.267,6.827-5.973,11.093-3.413c4.267,2.56,5.973,6.827,3.413,11.093L306.347,243.2
		C304.64,245.76,302.08,247.467,298.667,247.467z"/>
	<path style="fill:#28384C;" d="M230.4,213.333h-68.267c-5.12,0-8.533-3.413-8.533-8.533c0-5.12,3.413-8.533,8.533-8.533H230.4
		c5.12,0,8.533,3.413,8.533,8.533C238.933,209.92,235.52,213.333,230.4,213.333z"/>
	<path style="fill:#28384C;" d="M349.867,213.333H281.6c-5.12,0-8.533-3.413-8.533-8.533c0-5.12,3.413-8.533,8.533-8.533h68.267
		c5.12,0,8.533,3.413,8.533,8.533C358.4,209.92,354.987,213.333,349.867,213.333z"/>
</g>
<g>
	<path style="fill:#AFB6BB;" d="M469.333,204.8H435.2c-5.12,0-8.533-3.413-8.533-8.533c0-5.12,3.413-8.533,8.533-8.533h34.133
		c5.12,0,8.533,3.413,8.533,8.533C477.867,201.387,474.453,204.8,469.333,204.8z"/>
	<path style="fill:#AFB6BB;" d="M76.8,204.8H42.667c-5.12,0-8.533-3.413-8.533-8.533c0-5.12,3.413-8.533,8.533-8.533H76.8
		c5.12,0,8.533,3.413,8.533,8.533C85.333,201.387,81.92,204.8,76.8,204.8z"/>
</g>
<g>
	<path style="fill:#7383BF;" d="M503.467,230.4h-34.133c-5.12,0-8.533-3.413-8.533-8.533v-51.2c0-5.12,3.413-8.533,8.533-8.533
		h34.133c5.12,0,8.533,3.413,8.533,8.533v51.2C512,226.987,508.587,230.4,503.467,230.4z"/>
	<path style="fill:#7383BF;" d="M42.667,230.4H8.533c-5.12,0-8.533-3.413-8.533-8.533v-51.2c0-5.12,3.413-8.533,8.533-8.533h34.133
		c5.12,0,8.533,3.413,8.533,8.533v51.2C51.2,226.987,47.787,230.4,42.667,230.4z"/>
</g>
<g>
</g>
<g>
</g>
<g>
</g>
<g>
</g>
<g>
</g>
<g>
</g>
<g>
</g>
<g>
</g>
<g>
</g>
<g>
</g>
<g>
</g>
<g>
</g>
<g>
</g>
<g>
</g>
<g>
</g>
</svg>
