<svg height="512pt" viewBox="0 -26 512 512" width="512pt" xmlns="http://www.w3.org/2000/svg"><g fill-rule="evenodd"><path d="m26 10c-8.800781 0-16 7.199219-16 16v44h431.035156v-60zm0 0" fill="#ae5e3c"/><path d="m70 70h-60v364c0 8.796875 7.199219 16 16 16h44zm0 0" fill="#db8c60"/><path d="m229.015625 390h-159.015625v60h416c8.800781 0 16-7.199219 16-16v-44zm0 0" fill="#ae5e3c"/><path d="m441.035156 70v319.996094h60.964844v-363.996094c0-8.800781-7.199219-16-16-16h-44.964844zm0 0" fill="#db8c60"/><path d="m229.015625 167.644531-53.007813-45.710937-60.214843-51.933594h-45.792969v39.496094l53.003906 45.714844 53.003906 45.710937 53.007813 45.714844 106.007813 91.429687 53.003906 45.710938 7.210937 6.222656h45.796875v-39.496094l-53.007812-45.714844zm0 0" fill="#db8c60"/><path d="m123.003906 390v-234.789062l-53.003906-45.714844v280.503906zm0 0" fill="#ae5e3c"/><path d="m123.003906 155.210938v234.789062h53.003906v-189.078125zm0 0" fill="#db8c60"/><path d="m176.007812 200.921875v189.078125h53.007813v-143.363281zm0 0" fill="#ae5e3c"/><path d="m229.015625 246.636719v143.363281h53.003906v-97.648438zm0 0" fill="#db8c60"/><path d="m282.019531 292.351562v97.648438h53.003907v-51.933594zm0 0" fill="#ae5e3c"/><path d="m335.023438 338.066406v51.933594h53.003906v-6.222656zm0 0" fill="#db8c60"/><path d="m388.027344 70v234.789062l53.007812 45.714844v-280.503906zm0 0" fill="#ae5e3c"/><path d="m388.027344 304.789062v-234.789062h-53.003906v189.074219zm0 0" fill="#db8c60"/><path d="m335.023438 259.074219v-189.074219h-53.003907v143.359375zm0 0" fill="#ae5e3c"/><path d="m282.019531 213.359375v-143.359375h-53.003906v97.644531zm0 0" fill="#db8c60"/><path d="m229.015625 167.644531v-97.644531h-53.007813v51.933594zm0 0" fill="#ae5e3c"/><path d="m176.007812 121.933594v-51.933594h-60.214843zm0 0" fill="#db8c60"/></g><path d="m75.765625 20h.269531c5.523438 0 10-4.476562 10-10s-4.476562-10-10-10h-.269531c-5.523437 0-10 4.476562-10 10s4.476563 10 10 10zm0 0"/><path d="m486 0h-370c-5.523438 0-10 4.476562-10 10s4.476562 10 10 10h315.035156v40h-411.035156v-34c0-3.253906 2.746094-6 6-6h21.035156c5.519532 0 10-4.476562 10-10s-4.480468-10-10-10h-21.035156c-14.335938 0-26 11.664062-26 26v408c0 14.335938 11.664062 26 26 26h460c14.335938 0 26-11.664062 26-26v-408c0-14.335938-11.664062-26-26-26zm0 20c3.253906 0 6 2.746094 6 6v354h-40.964844v-360zm-193.980469 359.996094v-65.816406l33.003907 28.46875v37.347656zm-53.003906 0v-111.527344l33.003906 28.464844v83.0625zm-53.007813 0v-157.242188l33.007813 28.464844v128.777344zm-53.003906 0v-202.957032l33.003906 28.464844v174.492188zm-53.003906 0v-248.671875l33.003906 28.464843v220.207032zm265.023438-20.101563 23.308593 20.101563h-23.308593zm53.933593 20.101563-318.957031-275.082032v-24.914062h32.074219l318.960937 275.082031v24.914063zm-53.933593-125.503906v-174.492188h33.003906v202.957031zm-20-17.246094-33.003907-28.46875v-128.777344h33.003907zm-53.003907-45.714844-33.003906-28.464844v-83.066406h33.003906zm-53.003906-45.714844-33.007813-28.464844v-37.351562h33.007813zm-53.007813-45.714844-23.308593-20.101562h23.308593zm265.027344 228.570313-33.007812-28.464844v-220.207031h33.007812zm-411.035156 105.328125v-354h40v360h-34c-3.253906 0-6-2.75-6-6zm466 6h-406v-40h412v34c0 3.25-2.746094 6-6 6zm0 0"/><path d="m472 409.996094h-41.035156c-5.523438 0-10 4.476562-10 10 0 5.523437 4.476562 10 10 10h41.035156c5.519531 0 10-4.476563 10-10 0-5.523438-4.480469-10-10-10zm0 0"/><path d="m402.234375 410h-.238281c-5.519532 0-10 4.476562-10 10s4.480468 10 10 10h.238281c5.519531 0 10-4.476562 10-10s-4.476563-10-10-10zm0 0"/></svg>