<svg height="512" viewBox="0 0 512 512" width="512" xmlns="http://www.w3.org/2000/svg"><g id="flat"><path d="m176 376v-16a16.019 16.019 0 0 0 16-16v-32h16v32a32.036 32.036 0 0 1 -32 32z" fill="#ea9d2d"/><path d="m416 376v-16a16.019 16.019 0 0 0 16-16v-32h16v32a32.036 32.036 0 0 1 -32 32z" fill="#ea9d2d"/><path d="m94 256h68a14 14 0 0 1 14 14v138a0 0 0 0 1 0 0h-96a0 0 0 0 1 0 0v-138a14 14 0 0 1 14-14z" fill="#f3af3e"/><path d="m334 256h68a14 14 0 0 1 14 14v138a0 0 0 0 1 0 0h-96a0 0 0 0 1 0 0v-138a14 14 0 0 1 14-14z" fill="#f3af3e"/><path d="m176 270v50h-96v-50a14 14 0 0 1 14-14h68a14 14 0 0 1 14 14z" fill="#3bd6d0"/><path d="m176 280h32v40h-32z" fill="#428dc5" transform="matrix(-1 0 0 -1 384 600)"/><path d="m119.208 375.208a12.435 12.435 0 0 1 -1.554-15.689l10.346-15.519 10.346 15.519a12.435 12.435 0 0 1 -1.554 15.689 12.433 12.433 0 0 1 -17.584 0z" fill="#428dc5"/><path d="m64 408h128v32h-128z" fill="#428dc5"/><path d="m416 270v50h-96v-50a14 14 0 0 1 14-14h68a14 14 0 0 1 14 14z" fill="#3bd6d0"/><path d="m160 270v50h-80v-50a14 14 0 0 1 14-14h52a14 14 0 0 1 14 14z" fill="#41dfd0"/><path d="m400 270v50h-80v-50a14 14 0 0 1 14-14h52a14 14 0 0 1 14 14z" fill="#41dfd0"/><path d="m416 280h32v40h-32z" fill="#428dc5" transform="matrix(-1 0 0 -1 864 600)"/><path d="m359.208 375.208a12.435 12.435 0 0 1 -1.554-15.689l10.346-15.519 10.346 15.519a12.435 12.435 0 0 1 -1.554 15.689 12.433 12.433 0 0 1 -17.584 0z" fill="#428dc5"/><path d="m304 408h128v32h-128z" fill="#428dc5"/><path d="m64 424h128v16h-128z" fill="#3c81b4"/><path d="m304 424h128v16h-128z" fill="#3c81b4"/><path d="m240 216h32v232h-32z" fill="#428dc5"/><path d="m32 440h448v32h-448z" fill="#834b10"/><path d="m32 456h448v16h-448z" fill="#70400e"/><path d="m32 160h448v64h-448z" fill="#4799cf"/><path d="m64 160h384v48h-384z" fill="#3c81b4"/><path d="m432 96h-85.47a96.029 96.029 0 0 0 -181.06 0h-85.47v96h352z" fill="#f3af3e"/><circle cx="256" cy="128" fill="#da922a" r="64"/><circle cx="256" cy="128" fill="#ea9d2d" r="48"/><path d="m275.72 140.1a19.722 19.722 0 1 1 -37.36-8.82l11.78-23.55 5.86-11.73 17.64 35.28a19.758 19.758 0 0 1 2.08 8.82z" fill="#4799cf"/><path d="m264 140.1a19.748 19.748 0 0 1 -13.86 18.84 19.726 19.726 0 0 1 -11.78-27.66l11.78-23.55 11.78 23.55a19.758 19.758 0 0 1 2.08 8.82z" fill="#428dc5"/><g fill="#ea9d2d"><path d="m104 136h64v16h-64z"/><path d="m344 136h64v16h-64z"/><path d="m160 320h16v88h-16z"/><path d="m400 320h16v88h-16z"/></g></g></svg>