<?xml version="1.0" encoding="iso-8859-1"?>
<!-- Generator: Adobe Illustrator 19.0.0, SVG Export Plug-In . SVG Version: 6.00 Build 0)  -->
<svg version="1.1" id="Capa_1" xmlns="http://www.w3.org/2000/svg" xmlns:xlink="http://www.w3.org/1999/xlink" x="0px" y="0px"
	 viewBox="0 0 512 512" style="enable-background:new 0 0 512 512;" xml:space="preserve">
<g>
	<path style="fill:#3B869E;" d="M436.364,477.091c-19.247,0-34.909-15.663-34.909-34.909v-69.818
		c0-6.412-5.213-11.636-11.636-11.636h-81.455c-6.435,0-11.636-5.213-11.636-11.636s5.201-11.636,11.636-11.636h81.455
		c19.247,0,34.909,15.663,34.909,34.909v69.818c0,6.412,5.213,11.636,11.636,11.636S448,448.593,448,442.182V221.091
		c0-6.423,5.201-11.636,11.636-11.636c6.435,0,11.636,5.213,11.636,11.636v221.091C471.273,461.428,455.61,477.091,436.364,477.091z
		"/>
	<rect x="320" y="69.818" style="fill:#3B869E;" width="58.182" height="93.091"/>
</g>
<polygon style="fill:#1F6C8C;" points="413.091,128 378.182,128 366.545,128 320,128 320,162.909 378.182,162.909 378.182,151.273 
	413.091,151.273 "/>
<path style="fill:#69B0BB;" d="M331.636,465.455H52.364V34.909C52.364,15.628,67.991,0,87.273,0h209.455
	c19.281,0,34.909,15.628,34.909,34.909V465.455z"/>
<rect x="52.364" y="81.455" style="fill:#EA9D2D;" width="279.273" height="46.545"/>
<rect x="98.909" y="46.545" style="fill:#FBB540;" width="186.182" height="139.636"/>
<g>
	<path style="fill:#EA9D2D;" d="M145.455,116.364c-6.435,0-11.636-5.213-11.636-11.636V81.455c0-6.423,5.201-11.636,11.636-11.636
		c6.435,0,11.636,5.213,11.636,11.636v23.273C157.091,111.151,151.889,116.364,145.455,116.364z"/>
	<path style="fill:#EA9D2D;" d="M192,116.364c-6.435,0-11.636-5.213-11.636-11.636V81.455c0-6.423,5.201-11.636,11.636-11.636
		c6.435,0,11.636,5.213,11.636,11.636v23.273C203.636,111.151,198.435,116.364,192,116.364z"/>
	<path style="fill:#EA9D2D;" d="M238.545,116.364c-6.435,0-11.636-5.213-11.636-11.636V81.455c0-6.423,5.201-11.636,11.636-11.636
		c6.435,0,11.636,5.213,11.636,11.636v23.273C250.182,111.151,244.98,116.364,238.545,116.364z"/>
	<path style="fill:#EA9D2D;" d="M250.182,151.273H133.818c-6.435,0-11.636-5.213-11.636-11.636S127.383,128,133.818,128h116.364
		c6.435,0,11.636,5.213,11.636,11.636S256.617,151.273,250.182,151.273z"/>
</g>
<circle style="fill:#F3AF3E;" cx="192" cy="314.182" r="81.455"/>
<path style="fill:#A8A8A8;" d="M366.545,512H17.455v-46.545c0-12.858,10.415-23.273,23.273-23.273h302.545
	c12.858,0,23.273,10.415,23.273,23.273V512z"/>
<path style="fill:#CDCDCD;" d="M471.273,174.545c-6.435,0-11.636-5.213-11.636-11.636v-50.991l-40.111-20.061
	c-5.748-2.874-8.076-9.868-5.201-15.616c2.886-5.748,9.879-8.087,15.616-5.201l46.545,23.273c3.933,1.978,6.423,6.004,6.423,10.415
	v58.182C482.909,169.332,477.708,174.545,471.273,174.545z"/>
<path style="fill:#DC4D41;" d="M192.081,360.727h-0.163c-11.578,0-22.121-5.876-28.207-15.732
	c-6.086-9.856-6.633-21.911-1.455-32.268l19.328-38.668c3.956-7.889,16.861-7.889,20.817,0l19.328,38.668
	c5.178,10.356,4.631,22.412-1.455,32.268C214.202,354.851,203.66,360.727,192.081,360.727z"/>
<polygon style="fill:#FBB540;" points="494.545,244.364 424.727,244.364 424.727,186.182 459.636,151.273 494.545,151.273 "/>
<rect x="52.364" y="407.273" style="fill:#3B869E;" width="279.273" height="34.909"/>
<g>
</g>
<g>
</g>
<g>
</g>
<g>
</g>
<g>
</g>
<g>
</g>
<g>
</g>
<g>
</g>
<g>
</g>
<g>
</g>
<g>
</g>
<g>
</g>
<g>
</g>
<g>
</g>
<g>
</g>
</svg>
